<?xml version="1.0" encoding="UTF-8"?>
<!DOCTYPE svg PUBLIC "-//W3C//DTD SVG 1.1//EN" "http://www.w3.org/Graphics/SVG/1.1/DTD/svg11.dtd">
<svg xmlns="http://www.w3.org/2000/svg" version="1.1" width="1200px" height="1200px" style="shape-rendering:geometricPrecision; text-rendering:geometricPrecision; image-rendering:optimizeQuality; fill-rule:evenodd; clip-rule:evenodd" xmlns:xlink="http://www.w3.org/1999/xlink">

<g><path style="opacity:1" fill="#fc7900" d="M 1294.5,331.5 C 1261.83,363.5 1229.5,395.833 1197.5,428.5C 1197.17,428.5 1196.83,428.5 1196.5,428.5C 1128.17,359.833 1059.83,291.167 991.5,222.5C 1059.8,153.701 1128.3,85.0346 1197,16.5C 1265.68,85.0136 1334.18,153.68 1402.5,222.5C 1366.48,258.854 1330.48,295.188 1294.5,331.5 Z"/></g>
<g><path style="opacity:1" fill="#00fe28" d="M 991.5,222.5 C 1059.83,291.167 1128.17,359.833 1196.5,428.5C 1196.5,528.5 1196.5,628.5 1196.5,728.5C 1063.5,728.5 930.5,728.5 797.5,728.5C 797.5,559.833 797.5,391.167 797.5,222.5C 862.167,222.5 926.833,222.5 991.5,222.5 Z"/></g>
<g><path style="opacity:1" fill="#0140fe" d="M 1294.5,331.5 C 1391.17,331.5 1487.83,331.5 1584.5,331.5C 1584.83,456.334 1584.5,581.001 1583.5,705.5C 1574.47,641.674 1542.47,593.174 1487.5,560C 1417.21,523.504 1348.55,526.17 1281.5,568C 1232.84,602.843 1204.84,650.01 1197.5,709.5C 1197.5,615.833 1197.5,522.167 1197.5,428.5C 1229.5,395.833 1261.83,363.5 1294.5,331.5 Z"/></g>
<g><path style="opacity:1" fill="#7093fe" d="M 1584.5,331.5 C 1585.83,461.833 1585.83,592.167 1584.5,722.5C 1584.79,716.741 1584.45,711.075 1583.5,705.5C 1584.5,581.001 1584.83,456.334 1584.5,331.5 Z"/></g>
<g><path style="opacity:1" fill="#fc7900" d="M 796.5,729.5 C 703.833,839.167 611.167,948.833 518.5,1058.5C 457.167,1058.5 395.833,1058.5 334.5,1058.5C 334.5,882.833 334.5,707.167 334.5,531.5C 488.5,531.5 642.5,531.5 796.5,531.5C 796.5,597.5 796.5,663.5 796.5,729.5 Z"/></g>
<g><path style="opacity:1" fill="#fc7900" d="M 1583.5,705.5 C 1584.45,711.075 1584.79,716.741 1584.5,722.5C 1584.5,724.5 1584.5,726.5 1584.5,728.5C 1584.69,736.201 1584.36,743.868 1583.5,751.5C 1571.74,827.545 1530.41,880.378 1459.5,910C 1387.55,934.343 1322.21,922.676 1263.5,875C 1225.43,840.033 1203.43,796.867 1197.5,745.5C 1197.5,733.5 1197.5,721.5 1197.5,709.5C 1204.84,650.01 1232.84,602.843 1281.5,568C 1348.55,526.17 1417.21,523.504 1487.5,560C 1542.47,593.174 1574.47,641.674 1583.5,705.5 Z"/></g>
<g><path style="opacity:1" fill="#0040fe" d="M 797.5,728.5 C 930.5,728.5 1063.5,728.5 1196.5,728.5C 1196.5,838.5 1196.5,948.5 1196.5,1058.5C 1063.5,1058.5 930.5,1058.5 797.5,1058.5C 797.5,948.833 797.5,839.167 797.5,729.5C 797.5,729.167 797.5,728.833 797.5,728.5 Z"/></g>
<g><path style="opacity:1" fill="#02fe28" d="M 796.5,729.5 C 796.833,729.5 797.167,729.5 797.5,729.5C 797.5,839.167 797.5,948.833 797.5,1058.5C 704.5,1058.5 611.5,1058.5 518.5,1058.5C 611.167,948.833 703.833,839.167 796.5,729.5 Z"/></g>
<g><path style="opacity:1" fill="#70fd84" d="M 1584.5,728.5 C 1585.83,839.5 1585.83,950.5 1584.5,1061.5C 1584.83,957.999 1584.5,854.665 1583.5,751.5C 1584.36,743.868 1584.69,736.201 1584.5,728.5 Z"/></g>
<g><path style="opacity:1" fill="#02fe28" d="M 1197.5,745.5 C 1203.43,796.867 1225.43,840.033 1263.5,875C 1322.21,922.676 1387.55,934.343 1459.5,910C 1530.41,880.378 1571.74,827.545 1583.5,751.5C 1584.5,854.665 1584.83,957.999 1584.5,1061.5C 1455.5,1061.5 1326.5,1061.5 1197.5,1061.5C 1197.5,956.167 1197.5,850.833 1197.5,745.5 Z"/></g>
</svg>
